<?xml version="1.0" encoding="UTF-8" standalone="no"?>
<svg
   width="456"
   height="456"
   viewBox="0 0 456 456"
   version="1.1"
   id="svg8"
   sodipodi:docname="appicon.svg"
   inkscape:version="1.3 (0e150ed6c4, 2023-07-21)"
   xmlns:inkscape="http://www.inkscape.org/namespaces/inkscape"
   xmlns:sodipodi="http://sodipodi.sourceforge.net/DTD/sodipodi-0.dtd"
   xmlns="http://www.w3.org/2000/svg"
   xmlns:svg="http://www.w3.org/2000/svg">
  <sodipodi:namedview
     id="namedview8"
     pagecolor="#ffffff"
     bordercolor="#999999"
     borderopacity="1"
     inkscape:showpageshadow="0"
     inkscape:pageopacity="0"
     inkscape:pagecheckerboard="0"
     inkscape:deskcolor="#d1d1d1"
     inkscape:zoom="1.7675439"
     inkscape:cx="228"
     inkscape:cy="227.71712"
     inkscape:window-width="1920"
     inkscape:window-height="1009"
     inkscape:window-x="1912"
     inkscape:window-y="-8"
     inkscape:window-maximized="1"
     inkscape:current-layer="svg8" />
  <!-- Background with gradient -->
  <defs
     id="defs2">
    <linearGradient
       id="bgGradient"
       x1="0%"
       y1="0%"
       x2="100%"
       y2="100%">
      <stop
         offset="0%"
         style="stop-color:#3b82f6;stop-opacity:1"
         id="stop1" />
      <stop
         offset="100%"
         style="stop-color:#1e40af;stop-opacity:1"
         id="stop2" />
    </linearGradient>
    <filter
       id="textShadow"
       x="0"
       y="0"
       width="1"
       height="1">
      <feDropShadow
         dx="3"
         dy="3"
         stdDeviation="4"
         flood-color="#000000"
         flood-opacity="0.3" />
    </filter>
    <filter
       style="color-interpolation-filters:sRGB;"
       inkscape:label="Drop Shadow"
       id="filter18"
       x="-0.047843207"
       y="-0.13089428"
       width="1.1083779"
       height="1.2830702">
      <feFlood
         result="flood"
         in="SourceGraphic"
         flood-opacity="0.439216"
         flood-color="rgb(0,0,0)"
         id="feFlood17" />
      <feGaussianBlur
         result="blur"
         in="SourceGraphic"
         stdDeviation="7.400000"
         id="feGaussianBlur17" />
      <feOffset
         result="offset"
         in="blur"
         dx="4.711246"
         dy="2.887538"
         id="feOffset17" />
      <feComposite
         result="comp1"
         operator="in"
         in="flood"
         in2="offset"
         id="feComposite17" />
      <feComposite
         result="comp2"
         operator="atop"
         in="comp1"
         in2="comp1"
         id="feComposite18" />
    </filter>
  </defs>
  <!-- Background -->
  <rect
     x="0"
     y="0"
     width="456"
     height="456"
     fill="url(#bgGradient)"
     rx="45"
     id="rect2"
     style="display:inline" />
  <!-- MKV Text with shadow -->
  <!-- Track visualization -->
  <rect
     x="37.651917"
     y="56.592789"
     width="372.48077"
     height="44.043335"
     rx="22.021667"
     fill="#f59e0b"
     id="rect3"
     style="stroke-width:1.25838" />
  <rect
     x="37.651917"
     y="113.21992"
     width="314.59525"
     height="35.234669"
     rx="17.617334"
     fill="#10b981"
     id="rect4"
     style="fill:#f59e0b;fill-opacity:1;stroke-width:1.25838" />
  <rect
     x="37.651917"
     y="164.26711"
     width="276.84381"
     height="35.234669"
     rx="17.617334"
     fill="#059669"
     id="rect5"
     style="fill:#f59e0b;fill-opacity:1;stroke-width:1.25838" />
  <!-- Edit indicator (gear icon) -->
  <path
     d="m 177.69627,373.86206 h -26.41464 v -81.18214 q 0,-13.15188 0.99367,-29.04767 h -0.66244 q -2.07012,12.48956 -3.72621,17.97738 l -27.82231,92.25243 H 98.203949 L 69.884813,282.55581 q -1.159273,-3.6901 -3.726204,-18.92356 H 65.41336 q 1.07646,20.05899 1.07646,35.19784 v 75.03197 H 42.393712 V 238.18004 h 39.166537 l 24.261711,80.42518 q 2.89817,9.65102 4.22304,19.39667 h 0.49682 q 2.23572,-11.25953 4.71985,-19.5859 l 24.26173,-80.23595 h 38.17287 z m 125.69723,0 h -33.78424 l -34.61228,-58.94693 q -0.99365,-1.70312 -3.14657,-7.47481 h -0.41403 v 66.42174 H 204.69054 V 238.18004 h 26.74584 v 64.1509 h 0.41403 q 0.99367,-2.6493 3.31218,-7.56943 l 32.79058,-56.58147 h 31.87974 l -41.40225,64.71862 z M 413.60629,238.18004 372.70087,373.86206 H 342.39442 L 301.98583,238.18004 h 28.81595 l 24.75855,94.42863 q 1.98731,7.66405 2.40133,13.53034 h 0.49684 q 0.57963,-6.33939 2.56693,-13.90881 l 24.59295,-94.05016 z"
     id="text2"
     style="font-weight:bold;font-size:120px;font-family:'Segoe UI', Arial, sans-serif;text-anchor:middle;fill:#ffffff;stroke-width:1.51064;filter:url(#filter18)"
     inkscape:label="text2"
     aria-label="MKV" />
  <path
     d="m 177.19943,373.86206 h -26.41464 v -81.18214 q 0,-13.15188 0.99367,-29.04767 h -0.66244 q -2.07012,12.48956 -3.72621,17.97738 L 119.5675,373.86206 H 97.707107 L 69.387971,282.55581 q -1.159273,-3.6901 -3.726204,-18.92356 h -0.745249 q 1.07646,20.05899 1.07646,35.19784 v 75.03197 H 41.89687 V 238.18004 h 39.166537 l 24.261713,80.42518 q 2.89817,9.65102 4.22304,19.39667 h 0.49682 q 2.23572,-11.25953 4.71985,-19.5859 l 24.26173,-80.23595 h 38.17287 z m 125.69723,0 h -33.78424 l -34.61228,-58.94693 q -0.99365,-1.70312 -3.14657,-7.47481 h -0.41403 v 66.42174 H 204.1937 V 238.18004 h 26.74584 v 64.1509 h 0.41403 q 0.99367,-2.6493 3.31218,-7.56943 l 32.79058,-56.58147 h 31.87974 l -41.40225,64.71862 z M 413.10945,238.18004 372.20403,373.86206 H 341.89758 L 301.48899,238.18004 h 28.81595 l 24.75855,94.42863 q 1.98731,7.66405 2.40133,13.53034 h 0.49684 q 0.57963,-6.33939 2.56693,-13.90881 l 24.59295,-94.05016 z"
     id="text2-5"
     style="font-weight:bold;font-size:120px;font-family:'Segoe UI', Arial, sans-serif;text-anchor:middle;fill:#ffffff;stroke-width:1.51064"
     inkscape:label="text2"
     aria-label="MKV" />
</svg>
